<svg id="Laag_1" data-name="Laag 1" xmlns="http://www.w3.org/2000/svg" width="3010" height="467.6452" viewBox="0 0 3010 467.6452"><defs><style>.cls-1{fill:#fff;fill-rule:evenodd;opacity:0.3;}</style></defs><path class="cls-1" d="M135.48,267.0355c6.6922-1.3837,14.822-.2476,20.5665-.2363q13.4529.0265,26.9058.1006c12.9854.0573,25.97-.0858,38.9552-.214,12.4373-.1228,25.051-.7784,37.4617.213,5.5031.4368,11.4929,2.25,13.8889,7.709,2.68,6.106.9519,13.3491-5.3759,16.2242-6.019,2.7349-13.643,1.8268-20.0544,1.8265h-43.89c-7.1686,0-15.8446-.7214-20.5092,2.0509-10.11,6.0089-5.0015,20.5194,4.9045,23.0108,5.5291,1.3906,12.12,1.9286,14.4729,8.0138,1.8073,4.6741.4246,10.4663-2.7433,14.2315-5.4895,6.5243-18.6086,3.9662-26.0684,3.9662h-43.48c-13.2977,0-23.4575.6-26.2519-9.8445-1.7778-6.6446,2.1949-11.412,5.3325-13.5361,7.6378-5.1706,18.9815-2.6579,27.5936-2.7082,5.1677-.03,11.3926-1.1467,15.2722-4.8486,4.7027-4.4872,3.0575-12.2527-1.119-16.58-4.5734-4.7384-11.3816-2.2852-17.1358-3.756-6.0654-1.55-12.4645-7.8738-9.8443-16.4076C126.0907,270.6225,130.3655,268.0931,135.48,267.0355Z" transform="translate(1004.9539 -266.2262)"/><path class="cls-1" d="M297.8873,266.9236c1.2552-.2048,2.5434-.3361,3.8362-.4416a87.6492,87.6492,0,0,1,20.28.8367,23.5736,23.5736,0,0,1,7.0594,1.9281c6.4338,3.2152,8.4588,13.1224,3.8955,18.7118-5.5925,6.85-18.4192,4.7-26.064,4.7-5.1892,0-10.73.3964-14.3571-1.2308-5.069-2.2743-6.7023-8.6912-6.1993-13.772C286.972,271.2521,291.84,267.91,297.8873,266.9236Z" transform="translate(1004.9539 -266.2262)"/><path class="cls-1" d="M228.1158,317.5283c7.1831-1.1552,15.6227-.2475,20.6164-.0568,36.5516,1.3954,73.2838.6792,109.847.0317,10.9348-.1936,38.853-2.64,33.0767,16.8081-1.7,5.7219-6.7622,8.8114-12.4261,9.7623-6.8962,1.1578-14.1259-.636-21.1149.3319-6.9637.9643-12.4179,7.6217-11.2676,14.7187.9937,6.1309,5.781,8.5717,11.4222,9.22,13.8341,1.59,28.1053.32,42.1182.5,5.9458.0761,13.01-.796,17.4478,3.8661,4.8317,5.0756,5.3829,13.7642-.0814,18.59-3.9585,3.4963-10.304,3.6515-15.3243,3.7914-18.4267.5133-36.8651.6642-55.2967.3453-17.7659-.3073-35.5646-1.6743-53.3334-.9281l-.5417.0227c-5.8781.2683-12.5632.0123-16.4207,5.3115-4.2529,5.8424-2.0024,15.5807,4.8221,18.4041,4.2578,1.7614,9.8612,1.4921,14.4246,1.7095,7.176.3419,14.355.0492,21.534.0634,6.8846.0137,13.4448,3.1289,15.1613,10.293,1.0752,4.4873-.2716,9.99-4.002,12.9208-3.5009,2.75-8.333,2.7627-12.5675,2.9078-21.2528.7282-42.5878-.42-63.868.2044-7.96.2337-23.2162.7765-27.3-8.0184-1.2552-2.703-.9349-5.8114-.0972-8.5853,2.1143-7.0015,10.1814-10.1408,16.8527-10.73,4.5579-.4023,7.63-2.1823,9.3862-6.5438,2.5635-6.3682,1.5107-13.7328-5.8537-15.5611-11.3449-2.8165-24.4339-1.874-36.0529-1.8125-5.7162.03-11.7167.6781-17.1307-1.5777-7.2514-3.0486-8.5877-12.478-4.3853-18.663,3.7623-5.5372,10.9926-6.4314,17.1479-6.3925,16.8846.107,33.7685.315,50.6531.4233,8.08.0518,16.3.4895,24.364-.0286,7.25-.4657,15.2-2.9516,15.5977-11.5111.2784-5.9959-4.5405-11.9013-10.4-13.1685a17.0405,17.0405,0,0,0-3.6273-.2553q-13.8326,0-27.665.01c-8.7151,0-17.7844.8859-26.447-.0063A14.1022,14.1022,0,0,1,215.0493,330.51C214.7418,322.0462,220.7722,318.7092,228.1158,317.5283Z" transform="translate(1004.9539 -266.2262)"/><path class="cls-1" d="M414.0436,318.6136c6.8519-1.1926,14.0883,3.7612,15.7126,10.4883,1.9686,8.1531-6.4434,15.6046-14.3194,14.8487C400.9983,342.5643,398.9723,321.2377,414.0436,318.6136Z" transform="translate(1004.9539 -266.2262)"/><path class="cls-1" d="M57.1179,343.356a112.9309,112.9309,0,0,1,17.38-.085c5.8539.2532,12.8019-.9794,18.4538.6337,5.7129,1.6306,9.5658,8.9974,8.63,14.613-1.0785,7.0551-7.7282,10.3674-14.2684,11.0277-4.9456.4992-9.9256-.232-14.8962-.27-7.0348-.0535-14.8353,1.6745-21.6873-.5456-5.7975-1.8784-8.9757-8.5233-8.307-14.3816.7721-6.7622,6.551-9.7942,12.6978-10.73Q56.1176,343.4667,57.1179,343.356Z" transform="translate(1004.9539 -266.2262)"/><path class="cls-1" d="M88.6878,394.4553a64.7488,64.7488,0,0,1,7.1744-.6241c11.6546-.5287,23.3054.5576,34.9591.5656,8.1051.0056,16.2073-.2327,24.3087-.4532,7.0687-.1923,14.3812-.6,21.1514,1.8335,5.3516,1.9239,9.3044,7.5529,8.4029,13.4181-1.5634,10.1706-12.7761,11.6074-21.021,11.4429-7.9887-.16-22.3587-1.9384-26.1751,7.3814-1.8263,4.4613-.3825,9.828,2.75,13.3383,5.14,5.7591,14.8583,2.5809,19.4,8.4016,4.2608,5.4609,3.2893,15.6728-2.0509,19.2786-5.2931,3.5741-16.3556,2.4611-25.0213,2.4611H83.3438c-12.5628,0-22.1108.5283-25.0215-9.0247-2.5612-8.4081,4.08-15.2344,11.931-16.4131,7.7518-1.1638,15.6577,1.0287,23.4136-.4286,11.4925-2.1594,16.26-19.0437,3.8707-23.9726-8.28-3.2942-19.511-.45-21.4-12.0082C74.7016,400.8614,80.6469,395.7289,88.6878,394.4553Z" transform="translate(1004.9539 -266.2262)"/><path class="cls-1" d="M356.1863,420.2048q.3808-.0711.7672-.1306c6.2406-.9609,13.15-1.1463,19.0495,1.4023,6.7694,2.9247,11.3964,13.6729,6,19.7757-3.0718,3.4739-9.0222,4.361-13.3561,4.94-5.2211.6975-11.21.9738-16.2215-.9448-5.0314-1.9261-7.96-7.8885-7.9036-13.0429C344.5992,425.112,349.7615,421.4052,356.1863,420.2048Z" transform="translate(1004.9539 -266.2262)"/><path class="cls-1" d="M187.9211,445.2c6.1553-1.1855,13.0063-.8913,17.476-.5668,4.5963.3336,10.0647,1.0057,13.809,4.12,4.3,3.5772,5.3089,11.1218,2.7434,15.9857-2.5628,4.8587-8.09,6.7461-13.2891,7.0518-4.1436.2436-8.2131-.0777-12.3491-.0609-4.4448.0181-8.9574.37-13.3118-.7491-7.0056-1.8006-10.1465-8.6742-8.5908-15.5379C175.801,449.3018,181.48,446.441,187.9211,445.2Z" transform="translate(1004.9539 -266.2262)"/><path class="cls-1" d="M1862.8628,732.636c-10.2153,2.1122-22.6252.378-31.3939.3607q-20.5353-.0405-41.0705-.1535c-19.8217-.0874-39.6429.131-59.4634.3267-18.9851.1874-38.2393,1.1882-57.1837-.3252-8.4-.6667-17.5434-3.4337-21.2009-11.7674-4.0906-9.3205-1.4529-20.3769,8.2061-24.7656,9.1878-4.1746,20.8255-2.7885,30.6122-2.7881h66.9958c10.9426,0,24.1861,1.1011,31.3063-3.1306,15.4331-9.1723,7.6347-31.3219-7.4864-35.125-8.44-2.1227-18.5007-2.9439-22.0923-12.2327-2.7588-7.1348-.6482-15.9763,4.1876-21.7237,8.3793-9.9591,28.4051-6.0542,39.7923-6.0542h66.37c20.2983,0,35.8068-.9152,40.0723,15.0271,2.7137,10.1428-3.35,17.42-8.14,20.6623-11.6588,7.8927-28.9745,4.0571-42.12,4.1339-7.8883.046-17.39,1.75-23.3124,7.4012-7.1784,6.85-4.6671,18.7032,1.7081,25.3084,6.981,7.2329,17.3736,3.4882,26.157,5.7333,9.2587,2.3665,19.0265,12.019,15.027,25.0455C1877.1954,727.1606,1870.67,731.0216,1862.8628,732.636Z" transform="translate(1004.9539 -266.2262)"/><path class="cls-1" d="M1614.9553,732.8069c-1.9161.3126-3.8825.513-5.8559.6741a133.7985,133.7985,0,0,1-30.9568-1.2772,35.9855,35.9855,0,0,1-10.776-2.9433c-9.8208-4.9079-12.9119-20.0307-5.9462-28.5627,8.5367-10.4562,28.1161-7.1742,39.7856-7.1742,7.9211,0,16.3788-.605,21.9155,1.8788,7.7375,3.4716,10.2306,13.2667,9.4629,21.0224C1631.6169,726.2,1624.1866,731.3009,1614.9553,732.8069Z" transform="translate(1004.9539 -266.2262)"/><path class="cls-1" d="M1721.4584,655.561c-10.9648,1.7633-23.8474.3778-31.47.0867-55.7945-2.13-111.8645-1.0367-167.6767-.0484-16.6915.2955-59.3074,4.03-50.49-25.6569,2.5943-8.7342,10.3222-13.45,18.9679-14.9017,10.5267-1.7673,21.5625.9708,32.231-.5066,10.63-1.472,18.9553-11.6342,17.1995-22.4675-1.5168-9.3585-8.8244-13.0843-17.4356-14.0742-21.1171-2.4276-42.9014-.4887-64.2916-.7626-9.076-.1162-19.8588,1.215-26.6333-5.9015-7.3753-7.7477-8.2167-21.01.1243-28.3775,6.0424-5.3369,15.7286-5.5738,23.3918-5.7873,28.1277-.7836,56.273-1.0139,84.4081-.5271,27.1189.4691,54.2878,2.5557,81.4111,1.4167l.827-.0347c8.9726-.41,19.1771-.0187,25.0654-8.1077,6.4919-8.9182,3.0565-23.7833-7.3608-28.093-6.4993-2.6888-15.0526-2.2777-22.0185-2.61-10.9538-.5219-21.9123-.0751-32.8708-.0968-10.5089-.0208-20.5227-4.7761-23.143-15.7118-1.6412-6.85.4147-15.25,6.109-19.7231,5.3439-4.1983,12.72-4.2171,19.1837-4.4386,32.4414-1.1115,65.0084.6416,97.4917-.312,12.15-.3566,35.4385-1.1852,41.6727,12.24,1.9159,4.1259,1.427,8.8708.1484,13.105-3.2275,10.6875-15.5416,15.48-25.725,16.3785-6.9574.6141-11.6475,3.3311-14.3277,9.9889-3.913,9.7207-2.306,20.9624,8.9355,23.7533,17.3175,4.2993,37.2973,2.8605,55.0332,2.7667,8.7254-.0461,17.8849-1.0351,26.1492,2.4083,11.069,4.6535,13.1087,19.0471,6.694,28.4882-5.743,8.4524-16.78,9.8173-26.1755,9.7579-25.7737-.1634-51.5461-.4808-77.32-.6462-12.334-.0791-24.8818-.7472-37.1906.0437-11.0661.7109-23.2027,4.5054-23.8093,17.5712-.4248,9.1524,6.9309,18.1668,15.8753,20.1012a26.0163,26.0163,0,0,0,5.5369.39q21.1146,0,42.2293-.016c13.3032.0006,27.1473-1.3523,40.37.01,10.3349,1.0644,18.4536,10.1636,18.8285,20.48C1741.8732,648.6645,1732.6681,653.7583,1721.4584,655.561Z" transform="translate(1004.9539 -266.2262)"/><path class="cls-1" d="M1437.6476,653.9043c-10.4592,1.82-21.5052-5.7413-23.9846-16.01-3.0049-12.4454,9.8355-23.82,21.858-22.666C1457.5607,617.3446,1460.6533,649.8988,1437.6476,653.9043Z" transform="translate(1004.9539 -266.2262)"/><path class="cls-1" d="M1982.4794,616.136c-8.8031.9808-17.6966.5119-26.5292.13-8.9357-.3865-19.5416,1.4951-28.1689-.9673-8.72-2.489-14.6017-13.7341-13.1731-22.3061,1.6463-10.7693,11.7968-15.8253,21.78-16.8332,7.5492-.7622,15.1511.3541,22.7384.4118,10.7383.0816,22.6455-2.5561,33.1047.8328,8.85,2.8673,13.7011,13.01,12.68,21.9529-1.1786,10.3222-10,14.95-19.3827,16.3786Q1984.0063,615.9672,1982.4794,616.136Z" transform="translate(1004.9539 -266.2262)"/><path class="cls-1" d="M1934.2893,538.1352a98.8626,98.8626,0,0,1-10.9516.9527c-17.79.8069-35.5745-.8512-53.3635-.8634-12.372-.0085-24.74.3552-37.1061.6917-10.79.2937-21.9523.9165-32.2867-2.7987-8.1691-2.9367-14.2029-11.5291-12.8267-20.4821,2.3865-15.5251,19.5022-17.7183,32.0876-17.4671,12.1945.2434,34.13,2.9589,39.9551-11.2673,2.7879-6.81.584-15.0021-4.1979-20.36-7.8458-8.791-22.6806-3.94-29.613-12.8246-6.5039-8.3358-5.021-23.9238,3.1307-29.428,8.08-5.4557,24.9661-3.7568,38.1939-3.7568h75.1355c19.1765,0,33.7513-.8064,38.1942,13.7758,3.91,12.8347-6.2283,23.2548-18.2121,25.0539-11.8328,1.7765-23.9008-1.57-35.74.6543-17.5428,3.2962-24.8194,29.0694-5.9084,36.5932,12.6392,5.0284,29.7827.6863,32.6656,18.33C1955.6385,528.3566,1946.5633,536.1911,1934.2893,538.1352Z" transform="translate(1004.9539 -266.2262)"/><path class="cls-1" d="M1525.9642,498.83q-.5811.1086-1.171.1994c-9.526,1.4668-20.0736,1.75-29.0782-2.1406-10.3332-4.4644-17.3962-20.871-9.1588-30.1868,4.6889-5.3027,13.772-6.6569,20.3874-7.5407,7.97-1.0647,17.1115-1.4864,24.7615,1.4422,7.68,2.94,12.15,12.0414,12.0645,19.9094C1543.6515,491.339,1535.7715,496.9974,1525.9642,498.83Z" transform="translate(1004.9539 -266.2262)"/><path class="cls-1" d="M1782.8139,460.675c-9.3959,1.81-19.8536,1.3605-26.6764.8652-7.016-.5093-15.3634-1.5351-21.0789-6.29-6.5641-5.4605-8.1038-16.977-4.1876-24.4015,3.912-7.4166,12.3495-10.2976,20.2853-10.7642,6.325-.3719,12.5368.1185,18.85.0928,6.7849-.0275,13.6732-.5647,20.32,1.1436,10.6939,2.7485,15.4882,13.2407,13.1135,23.7179C1801.3147,454.4144,1792.6456,458.7813,1782.8139,460.675Z" transform="translate(1004.9539 -266.2262)"/><path class="cls-1" d="M-912.1258,342.5c6.6693-1.3791,14.7714-.2468,20.4963-.2356q13.407.0265,26.8139.1c12.9411.0571,25.8819-.0855,38.8222-.2133,12.395-.1224,24.9655-.7757,37.3339.2123,5.4843.4353,11.4536,2.2418,13.8415,7.6826,2.6707,6.0852.9486,13.3036-5.3575,16.1689-5.9985,2.7255-13.5965,1.82-19.986,1.82h-43.74c-7.1442,0-15.7905-.7189-20.4391,2.0438-10.076,5.9884-4.9845,20.4494,4.8877,22.9323,5.51,1.3859,12.0786,1.922,14.4235,7.9865,1.8011,4.6581.4231,10.43-2.734,14.1828-5.4707,6.5021-18.545,3.9527-25.9794,3.9527h-43.3312c-13.2523,0-23.3774.5975-26.1622-9.8108-1.7718-6.622,2.1873-11.3731,5.3142-13.49,7.6117-5.1529,18.9167-2.6488,27.4994-2.6989,5.15-.03,11.3537-1.1428,15.22-4.8321,4.6866-4.4718,3.047-12.2108-1.1152-16.5232-4.5577-4.7222-11.3427-2.2774-17.0772-3.7431-6.0448-1.545-12.422-7.847-9.8108-16.3516C-921.4832,346.0746-917.223,343.5538-912.1258,342.5Z" transform="translate(1004.9539 -266.2262)"/><path class="cls-1" d="M-750.273,342.3883c1.2509-.2041,2.5347-.3349,3.8231-.44a87.3525,87.3525,0,0,1,20.211.8338,23.4931,23.4931,0,0,1,7.0353,1.9216c6.4118,3.2042,8.43,13.0776,3.8822,18.6479-5.5735,6.8266-18.3563,4.6839-25.9751,4.6839-5.1715,0-10.6933.395-14.3081-1.2266-5.0516-2.2666-6.6793-8.6616-6.1781-13.7251C-761.151,346.7021-756.3,343.3715-750.273,342.3883Z" transform="translate(1004.9539 -266.2262)"/><path class="cls-1" d="M-819.8063,392.82c7.1586-1.1512,15.5694-.2466,20.546-.0566,36.4269,1.3907,73.0337.6769,109.4721.0317,10.8974-.193,38.72-2.6312,32.9637,16.7507-1.6937,5.7023-6.7391,8.7813-12.3837,9.729-6.8726,1.1538-14.0776-.6339-21.0428.3307-6.94.961-12.3755,7.5957-11.2291,14.6685.99,6.11,5.7612,8.5424,11.3832,9.1887,13.7869,1.5849,28.0093.319,41.9744.4979,5.9255.0759,12.9654-.7933,17.3883,3.8529,4.8152,5.0583,5.3645,13.7172-.0811,18.527-3.945,3.4843-10.2689,3.639-15.272,3.7784-18.3639.5116-36.7393.6619-55.108.3441-17.7052-.3063-35.4432-1.6685-53.1513-.9249l-.54.0227c-5.858.2673-12.52.0122-16.3647,5.2933-4.2383,5.8224-1.9955,15.5275,4.8057,18.3412,4.2433,1.7555,9.8275,1.487,14.3754,1.7037,7.1515.3408,14.306.049,21.4605.0632,6.861.0136,13.3988,3.1182,15.11,10.2579,1.0716,4.472-.2707,9.956-3.9883,12.8767-3.4889,2.741-8.3046,2.7532-12.5246,2.8978-21.18.7258-42.4424-.4188-63.65.2037-7.9326.2329-23.1369.7739-27.2071-7.991-1.2509-2.6937-.9316-5.7916-.0968-8.5559,2.1071-6.9777,10.1467-10.1063,16.7951-10.6932,4.5424-.4009,7.6044-2.1748,9.3542-6.5214,2.5548-6.3465,1.5056-13.6859-5.8337-15.508-11.3062-2.8069-24.3505-1.8676-35.93-1.8064-5.6967.03-11.6767.6759-17.0722-1.5723-7.2267-3.0381-8.5584-12.4354-4.37-18.5992,3.75-5.5184,10.9551-6.4095,17.0894-6.3707,16.827.1067,33.6532.3139,50.48.4219,8.0525.0516,16.2447.4878,24.2808-.0285,7.2248-.4642,15.1485-2.9415,15.5445-11.4718.2774-5.9754-4.525-11.8607-10.3646-13.1236a16.9891,16.9891,0,0,0-3.6149-.2545q-13.7852,0-27.5705.0105c-8.6853,0-17.7237.8828-26.3568-.0063a14.0542,14.0542,0,0,1-12.2926-13.3708C-833.1347,397.3228-827.1249,393.9971-819.8063,392.82Z" transform="translate(1004.9539 -266.2262)"/><path class="cls-1" d="M-634.5132,393.9019c6.8286-1.1886,14.04,3.7483,15.6589,10.4524,1.9619,8.1253-6.4213,15.5514-14.2705,14.7981C-647.514,417.7708-649.5331,396.517-634.5132,393.9019Z" transform="translate(1004.9539 -266.2262)"/><path class="cls-1" d="M-990.2206,418.56a112.5536,112.5536,0,0,1,17.32-.0847c5.8339.2523,12.7582-.9761,18.3908.6315,5.6933,1.625,9.5331,8.9667,8.6,14.5631-1.0748,7.0311-7.7018,10.332-14.22,10.99-4.9287.4975-9.8917-.2312-14.8453-.2689-7.0108-.0533-14.7847,1.6688-21.6133-.5437-5.7777-1.872-8.9451-8.4943-8.2786-14.3325.7694-6.7391,6.5286-9.7608,12.6544-10.6933Q-991.2174,418.67-990.2206,418.56Z" transform="translate(1004.9539 -266.2262)"/><path class="cls-1" d="M-958.7584,469.4847a64.5293,64.5293,0,0,1,7.15-.622c11.6148-.5268,23.2257.5557,34.84.5637,8.0774.0055,16.152-.2319,24.2257-.4517,7.0446-.1917,14.3321-.5983,21.0792,1.8273,5.3334,1.9173,9.2727,7.5271,8.3742,13.3722-1.5581,10.136-12.7325,11.5679-20.9492,11.4039-7.9615-.159-22.2824-1.9318-26.0857,7.3562-1.82,4.4461-.3813,9.7944,2.7407,13.2928,5.1223,5.7394,14.8076,2.572,19.3336,8.3728,4.2463,5.4423,3.2781,15.6194-2.0439,19.2129-5.275,3.5619-16.3,2.4527-24.9359,2.4527h-49.0541c-12.52,0-22.0354.5265-24.9361-8.9939-2.5525-8.38,4.0663-15.1824,11.89-16.3571,7.7254-1.16,15.6043,1.0252,23.3337-.4271,11.4533-2.152,16.204-18.9787,3.8575-23.8908-8.2518-3.283-19.4444-.4481-21.3266-11.9672C-972.6968,475.8689-966.7719,470.7539-958.7584,469.4847Z" transform="translate(1004.9539 -266.2262)"/><path class="cls-1" d="M-692.1729,495.1463q.3794-.071.7644-.13c6.2194-.9576,13.1056-1.1424,18.9845,1.3975,6.7463,2.9147,11.3576,13.6262,5.98,19.7082-3.0613,3.4621-8.9914,4.3462-13.3105,4.9232-5.2033.6951-11.1716.97-16.1662-.9416-5.0141-1.9195-7.9326-7.8615-7.8765-12.9984C-703.72,500.0367-698.5759,496.3425-692.1729,495.1463Z" transform="translate(1004.9539 -266.2262)"/><path class="cls-1" d="M-859.8638,520.0566c6.1343-1.1815,12.9619-.8883,17.4163-.5649,4.5806.3325,10.03,1.0022,13.7619,4.1063,4.2856,3.565,5.2908,11.0839,2.734,15.9312-2.554,4.8421-8.0627,6.723-13.2437,7.0277-4.13.2428-8.1851-.0774-12.3069-.0607-4.43.018-8.9269.3687-13.2664-.7466-6.9817-1.7944-10.1118-8.6445-8.5614-15.4848C-871.9426,524.1439-866.2827,521.2929-859.8638,520.0566Z" transform="translate(1004.9539 -266.2262)"/></svg>