<svg id="Laag_1" data-name="Laag 1" xmlns="http://www.w3.org/2000/svg" width="2560.4505" height="697.4446" viewBox="0 0 2560.4505 697.4446"><defs><style>.cls-1{fill:#06f9ca;fill-rule:evenodd;}</style></defs><path class="cls-1" d="M1497.8234,363.8037c6.4268-1.3289,14.2342-.2379,19.7509-.227q12.9194.0255,25.8387.0966c12.47.055,24.9406-.0824,37.41-.2055,11.9442-.118,24.0575-.7476,35.976.2045,5.2849.4195,11.0371,2.16,13.3382,7.4032,2.5735,5.8639.9141,12.82-5.1627,15.5808-5.78,2.6264-13.102,1.7544-19.2591,1.7541l-42.1491,0c-6.8843,0-15.2162-.6928-19.6957,1.9695-9.7095,5.7706-4.8033,19.7056,4.71,22.0982,5.31,1.3354,11.6393,1.8521,13.8989,7.696,1.7356,4.4887.4078,10.0512-2.6345,13.667-5.2717,6.2656-17.87,3.8089-25.0346,3.8089h-41.7552c-12.77,0-22.5271.5758-25.2107-9.454a11.8618,11.8618,0,0,1,5.121-12.9993c7.3349-4.9655,18.2287-2.5524,26.4992-2.6007,4.9628-.029,10.9408-1.1013,14.6666-4.6564,4.5161-4.3092,2.9362-11.7667-1.0746-15.9223-4.392-4.55-10.93-2.1945-16.4562-3.6069-5.8249-1.4889-11.97-7.5616-9.454-15.757C1488.8064,367.2484,1492.9117,364.8193,1497.8234,363.8037Z" transform="translate(779.7432 -151.5816)"/><path class="cls-1" d="M1653.79,363.6961c1.2055-.1967,2.4426-.3228,3.6841-.4241a84.1785,84.1785,0,0,1,19.4759.8035,22.6382,22.6382,0,0,1,6.78,1.8517c6.1786,3.0877,8.1233,12.602,3.7409,17.97-5.3707,6.5783-17.6886,4.5135-25.03,4.5135-4.9834,0-10.3044.3806-13.7877-1.182-4.8679-2.1841-6.4364-8.3465-5.9534-13.2258C1643.3073,367.853,1647.9819,364.6436,1653.79,363.6961Z" transform="translate(779.7432 -151.5816)"/><path class="cls-1" d="M1586.7853,412.2938c6.8982-1.1093,15.0031-.2376,19.7988-.0545,35.102,1.34,70.3774.6522,105.49.03,10.5011-.1859,37.3121-2.5354,31.7648,16.1415-1.6321,5.495-6.4939,8.462-11.9332,9.3752-6.6227,1.1119-13.5657-.6108-20.2775.3187-6.6875.926-11.9254,7.3194-10.8207,14.135.9542,5.8877,5.5517,8.2317,10.9692,8.8545,13.2854,1.5273,26.9906.3074,40.4478.48,5.71.0731,12.4938-.7645,16.7558,3.7128,4.64,4.8743,5.1694,13.2182-.0781,17.8531-3.8015,3.3576-9.8954,3.5066-14.7166,3.641-17.6959.493-35.403.6379-53.1037.3316-17.0613-.2951-34.1541-1.6078-51.2182-.8912l-.52.0218c-5.645.2576-12.0649.0118-15.77,5.1008-4.0842,5.6107-1.9229,14.9628,4.6309,17.6742,4.0889,1.6916,9.47,1.4329,13.8526,1.6417,6.8913.3284,13.7856.0472,20.68.0609,6.6114.0131,12.9115,3.0048,14.56,9.8848,1.0326,4.3093-.2608,9.5939-3.8433,12.4084-3.362,2.6413-8.0025,2.6531-12.069,2.7924-20.41.6993-40.8988-.4036-61.335.1963-7.6441.2244-22.2955.7457-26.2176-7.7-1.2054-2.5957-.8978-5.5809-.0934-8.2447,2.03-6.7239,9.7777-9.7387,16.1844-10.3042,4.3771-.3864,7.3278-2.0958,9.014-6.2843,2.4618-6.1157,1.4507-13.1882-5.6216-14.944-10.895-2.7048-23.4649-1.8-34.6231-1.7406-5.4894.029-11.2519.6512-16.4512-1.5151-6.9639-2.9277-8.2472-11.9832-4.2115-17.9228,3.6131-5.3177,10.5567-6.1764,16.4679-6.139,16.215.1028,32.4292.3024,48.6442.4065,7.76.05,15.6539.47,23.3978-.0275,6.962-.4473,14.5975-2.8345,14.9791-11.0545.2673-5.7582-4.3605-11.4294-9.9876-12.6464a16.3694,16.3694,0,0,0-3.4835-.2451q-13.2839,0-26.5677.01c-8.37,0-17.0792.8508-25.3982-.006A13.543,13.543,0,0,1,1574.237,424.76C1573.9417,416.6326,1579.7329,413.428,1586.7853,412.2938Z" transform="translate(779.7432 -151.5816)"/><path class="cls-1" d="M1765.3393,413.3361c6.58-1.1454,13.53,3.612,15.0894,10.0723,1.89,7.83-6.1878,14.9858-13.7515,14.26C1752.8113,436.3369,1750.8657,415.8561,1765.3393,413.3361Z" transform="translate(779.7432 -151.5816)"/><path class="cls-1" d="M1422.569,437.0974a108.4394,108.4394,0,0,1,16.69-.0817c5.6217.2432,12.2942-.9406,17.7219.6086,5.4863,1.5659,9.1864,8.64,8.2876,14.0334-1.0357,6.7753-7.4217,9.9562-13.7026,10.59-4.7494.48-9.5319-.2228-14.3054-.2591-6.7558-.0513-14.2469,1.6082-20.8272-.5239-5.5675-1.8039-8.62-8.1853-7.9775-13.8112.7415-6.494,6.2912-9.4058,12.1942-10.3043Q1421.6084,437.2036,1422.569,437.0974Z" transform="translate(779.7432 -151.5816)"/><path class="cls-1" d="M1452.8869,486.17a62.1973,62.1973,0,0,1,6.89-.5993c11.1924-.5077,22.3811.5355,33.5726.5432,7.7837.0053,15.5646-.2235,23.3446-.4353,6.7884-.1847,13.8109-.5765,20.3126,1.7608,5.1394,1.8476,8.9354,7.2533,8.07,12.8859-1.5015,9.7673-12.2694,11.1471-20.1873,10.9891-7.6719-.1531-21.472-1.8615-25.137,7.0887-1.754,4.2844-.3674,9.4382,2.6411,12.8093,4.936,5.5307,14.269,2.4785,18.63,8.0684,4.0918,5.2443,3.1589,15.0512-1.97,18.5141-5.0832,3.4323-15.7069,2.3635-24.0289,2.3635h-47.27c-12.0645,0-21.2339.5073-24.0291-8.6668-2.46-8.0747,3.9184-14.63,11.4577-15.7622,7.4444-1.1176,15.0368.9879,22.4851-.4116,11.0367-2.0737,15.6147-18.2885,3.7171-23.0219-7.9517-3.1635-18.7371-.4318-20.5509-11.5319C1439.4554,492.3221,1445.1649,487.3931,1452.8869,486.17Z" transform="translate(779.7432 -151.5816)"/><path class="cls-1" d="M1709.7767,510.8982q.3656-.0682.7366-.1254c5.9932-.9228,12.629-1.1008,18.294,1.3467,6.501,2.8087,10.9445,13.1306,5.7622,18.9914-2.95,3.3362-8.6644,4.1881-12.8264,4.7441-5.0141.67-10.7654.9352-15.5782-.9073-4.8319-1.85-7.6441-7.5756-7.59-12.5256C1698.6491,515.6109,1703.6066,512.051,1709.7767,510.8982Z" transform="translate(779.7432 -151.5816)"/><path class="cls-1" d="M1548.1847,534.9026a67.1777,67.1777,0,0,1,16.7829-.5444c4.414.3205,9.6656.9658,13.2614,3.9571,4.13,3.4353,5.0983,10.6807,2.6346,15.3517-2.4612,4.666-7.7695,6.4785-12.7621,6.7721-3.9793.2339-7.8874-.0746-11.8593-.0584-4.2686.0173-8.6022.3552-12.7839-.72-6.7278-1.7291-9.7441-8.33-8.25-14.9217C1536.5453,538.8413,1541.9993,536.094,1548.1847,534.9026Z" transform="translate(779.7432 -151.5816)"/><path class="cls-1" d="M877.749,847.9872c-8.5906,1.7764-19.0269.3179-26.401.3034q-17.2693-.034-34.5387-.1291c-16.6693-.0735-33.3382.11-50.0064.2747-15.9658.1577-32.1578.9993-48.0893-.2734-7.0643-.5607-14.7534-2.8877-17.8291-9.8959-3.44-7.8383-1.2219-17.1362,6.9009-20.827,7.7267-3.5107,17.5135-2.345,25.7437-2.3447H789.87c9.2023,0,20.34.9261,26.3274-2.6326,12.9787-7.7136,6.42-26.3406-6.2958-29.5388-7.0977-1.7851-15.5583-2.4757-18.5787-10.2873-2.32-6-.5451-13.4354,3.5215-18.2687,7.0468-8.3752,23.8877-5.0914,33.4638-5.0914h55.8144c17.07,0,30.1121-.77,33.6993,12.6372,2.2821,8.53-2.8175,14.6495-6.8452,17.3762-9.8046,6.6375-24.3664,3.4119-35.4217,3.4764-6.6338.0388-14.6246,1.4721-19.6049,6.2242-6.0367,5.76-3.9248,15.7286,1.4365,21.2834,5.8708,6.0826,14.6105,2.9334,21.9971,4.8214,7.7861,1.99,16,10.1076,12.6371,21.0624C889.8022,843.3826,884.3146,846.63,877.749,847.9872Z" transform="translate(779.7432 -151.5816)"/><path class="cls-1" d="M669.2684,848.131c-1.6114.2629-3.265.4314-4.9246.5669a112.522,112.522,0,0,1-26.0334-1.0741,30.2579,30.2579,0,0,1-9.0622-2.4752c-8.259-4.1273-10.8584-16.8451-5.0006-24.02,7.1791-8.7933,23.6446-6.0333,33.4582-6.0333,6.6613,0,13.7739-.5088,18.43,1.58,6.5069,2.9195,8.6036,11.1569,7.9579,17.6791C683.28,842.5745,677.0316,846.8645,669.2684,848.131Z" transform="translate(779.7432 -151.5816)"/><path class="cls-1" d="M758.8334,783.17c-9.2209,1.4828-20.0547.3177-26.4651.0729-46.921-1.7914-94.0738-.8719-141.01-.0407-14.0368.2485-49.8752,3.3891-42.46-21.5765,2.1817-7.3451,8.6806-11.3111,15.9513-12.5317,8.8526-1.4863,18.1332.8164,27.105-.426,8.9392-1.2379,15.9407-9.7839,14.4641-18.8943-1.2755-7.87-7.4209-11.0034-14.6626-11.8359-17.7587-2.0416-36.0784-.411-54.0667-.6414-7.6326-.0977-16.7,1.0219-22.3976-4.9629-6.2024-6.5155-6.91-17.6689.1045-23.8643,5.0814-4.4882,13.2271-4.6874,19.6716-4.8669,23.6543-.659,47.3234-.8527,70.984-.4434,22.8059.3946,45.6539,2.1493,68.4635,1.1915l.6955-.0292c7.5456-.3444,16.1272-.0158,21.0791-6.8183,5.4594-7.5,2.57-20.0008-6.19-23.6251-5.4657-2.2612-12.6587-1.9155-18.5167-2.1946-9.2118-.4389-18.4274-.0631-27.6431-.0814-8.8375-.0175-17.2588-4.0165-19.4624-13.213-1.38-5.76.3488-12.8242,5.1374-16.5863,4.4941-3.5307,10.697-3.5465,16.1328-3.7327,27.282-.9348,54.67.5395,81.9868-.2624,10.2178-.3,29.8024-.9967,35.0451,10.2931,1.6112,3.47,1.2,7.46.1248,11.0209-2.7142,8.9878-13.07,13.0177-21.6337,13.7737-5.851.5164-9.7952,2.8013-12.049,8.4-3.2908,8.1748-1.9393,17.6286,7.5143,19.9756,14.5634,3.6156,31.3656,2.4056,46.2808,2.3268,7.3378-.0388,15.0406-.8706,21.99,2.0252,9.3086,3.9134,11.0239,16.0179,5.6294,23.9575-4.83,7.1081-14.1111,8.256-22.0126,8.206-21.6747-.1374-43.3483-.4043-65.023-.5434-10.3723-.0665-20.9246-.6284-31.2758.0367-9.3062.5979-19.5126,3.7889-20.0227,14.7767-.3573,7.6969,5.8286,15.2776,13.35,16.9044a21.8822,21.8822,0,0,0,4.6563.3277q17.7567,0,35.5132-.0134c11.1875,0,22.83-1.1373,33.95.0081a18.1029,18.1029,0,0,1,15.8341,17.2226C776.0015,777.3705,768.26,781.6542,758.8334,783.17Z" transform="translate(779.7432 -151.5816)"/><path class="cls-1" d="M520.16,781.7769c-8.7958,1.531-18.085-4.8281-20.17-13.4637-2.527-10.4661,8.2713-20.0315,18.3817-19.0611C536.9057,751.0316,539.5064,778.4085,520.16,781.7769Z" transform="translate(779.7432 -151.5816)"/><path class="cls-1" d="M978.342,750.0153c-7.4031.8248-14.8821.43-22.31.1092-7.5146-.3251-16.4337,1.2572-23.689-.8135-7.3335-2.0932-12.2795-11.55-11.078-18.7586,1.3844-9.0566,9.9206-13.3085,18.3163-14.1561,6.3485-.6409,12.7414.2978,19.1221.3463,9.03.0686,19.044-2.1495,27.84.7,7.4421,2.4113,11.522,10.9413,10.6636,18.4615-.9912,8.6806-8.41,12.5727-16.3,13.7738Q979.626,749.8733,978.342,750.0153Z" transform="translate(779.7432 -151.5816)"/><path class="cls-1" d="M937.8159,684.42a83.1154,83.1154,0,0,1-9.21.8012c-14.9609.6786-29.9168-.7158-44.8766-.7261-10.4044-.0071-20.8052.2987-31.2048.5818-9.0741.2469-18.4611.7707-27.1519-2.3537-6.87-2.47-11.944-9.6955-10.7868-17.2246,2.007-13.056,16.4006-14.9,26.9845-14.6892,10.2551.2047,28.7017,2.4884,33.6007-9.4754,2.3445-5.727.4911-12.6161-3.53-17.1223-6.598-7.3929-19.0735-3.3131-24.9034-10.785-5.4695-7.01-4.2225-20.1191,2.6328-24.7479,6.7947-4.588,20.9955-3.1593,32.12-3.1593H944.676c16.1267,0,28.3835-.6781,32.12,11.585,3.2878,10.7935-5.2378,19.5563-15.3156,21.0693-9.951,1.494-20.1-1.3205-30.0559.55-14.7529,2.772-20.8722,24.4463-4.9688,30.7735,10.6291,4.2287,25.0461.5771,27.4705,15.4148C955.77,676.1962,948.138,682.7847,937.8159,684.42Z" transform="translate(779.7432 -151.5816)"/><path class="cls-1" d="M594.43,651.3652q-.4887.0914-.9848.1677c-8.011,1.2335-16.8811,1.4715-24.4536-1.8-8.69-3.7543-14.63-17.5517-7.7023-25.3859,3.9433-4.4594,11.5818-5.5982,17.1451-6.3414,6.7023-.8954,14.39-1.25,20.8235,1.2128,6.4587,2.4726,10.2179,10.1264,10.1457,16.7431C609.3047,645.0659,602.6779,649.8243,594.43,651.3652Z" transform="translate(779.7432 -151.5816)"/><path class="cls-1" d="M810.431,619.2785c-7.9015,1.5219-16.6961,1.1442-22.4338.7277-5.9-.4283-12.92-1.291-17.7265-5.2893-5.52-4.5921-6.815-14.277-3.5217-20.5207,3.29-6.2371,10.3855-8.66,17.0592-9.0523,5.3191-.3128,10.543.1,15.8523.0781,5.7058-.0232,11.4986-.4749,17.0883.9617,8.9931,2.3113,13.0249,11.1349,11.0279,19.9458C825.99,614.0137,818.6991,617.6861,810.431,619.2785Z" transform="translate(779.7432 -151.5816)"/><path class="cls-1" d="M-397.864,417.1484c-8.6758,1.794-19.2155.3211-26.6626.3064q-17.4407-.0344-34.881-.13c-16.8345-.0742-33.6686.1113-50.502.2775-16.124.1592-32.4764,1.0091-48.5658-.2761-7.1344-.5663-14.9-2.9163-18.0059-9.9941-3.4741-7.9159-1.2339-17.3059,6.9694-21.0333,7.8032-3.5455,17.687-2.3682,25.9988-2.3679h56.8992c9.2935,0,20.5412.9352,26.5883-2.6588,13.1073-7.79,6.4841-26.6015-6.3582-29.8315-7.168-1.8028-15.7125-2.5-18.7628-10.3892-2.343-6.06-.55-13.5686,3.5564-18.45,7.1166-8.4582,24.1244-5.1418,33.7955-5.1418h56.3674c17.2393,0,30.4106-.7773,34.0332,12.7624,2.3048,8.6142-2.8454,14.7947-6.913,17.5484-9.9017,6.7033-24.6079,3.4457-35.7727,3.5109-6.6995.0391-14.77,1.4867-19.7991,6.2859-6.0966,5.8172-3.9637,15.8845,1.4507,21.4942,5.929,6.1429,14.7553,2.9626,22.215,4.8693,7.8633,2.01,16.1592,10.2077,12.7624,21.2711C-385.6914,412.4982-391.2333,415.7774-397.864,417.1484Z" transform="translate(779.7432 -151.5816)"/><path class="cls-1" d="M-608.4106,417.2936c-1.6274.2655-3.2974.4357-4.9734.5725a113.6306,113.6306,0,0,1-26.2914-1.0847,30.5585,30.5585,0,0,1-9.152-2.5c-8.3408-4.1682-10.9661-17.012-5.05-24.2582,7.25-8.88,23.8788-6.093,33.79-6.093,6.7273,0,13.91-.5138,18.6127,1.5956,6.5714,2.9485,8.6888,11.2674,8.0368,17.8543C-594.26,411.682-600.57,416.0146-608.4106,417.2936Z" transform="translate(779.7432 -151.5816)"/><path class="cls-1" d="M-517.9581,351.6891c-9.3123,1.4975-20.2534.3208-26.7274.0736-47.3859-1.8091-95.0059-.88-142.407-.0411-14.1759.251-50.3694,3.4226-42.8809-21.79,2.2033-7.4179,8.7665-11.4232,16.1093-12.6559,8.94-1.501,18.3129.8245,27.3736-.43,9.0278-1.25,16.0987-9.8808,14.6075-19.0815-1.2882-7.9482-7.4945-11.1124-14.808-11.9532-17.9346-2.0618-36.4359-.415-54.6025-.6477-7.7082-.0987-16.866,1.032-22.62-5.0121-6.2638-6.58-6.9784-17.844.1056-24.1008,5.1318-4.5327,13.3582-4.7338,19.8666-4.9151,23.8886-.6656,47.7923-.8611,71.6874-.4478,23.0319.3985,46.1063,2.1706,69.142,1.2033l.7023-.0295c7.62-.3478,16.2871-.0159,21.288-6.8859,5.5135-7.5741,2.5959-20.1989-6.2515-23.8592-5.52-2.2836-12.7841-1.9344-18.7-2.2163-9.303-.4433-18.61-.0637-27.917-.0822-8.9251-.0177-17.43-4.0563-19.6553-13.344-1.3938-5.8173.3522-12.9513,5.1884-16.7507,4.5385-3.5656,10.803-3.5815,16.2926-3.77,27.5524-.9441,55.2113.5448,82.7992-.265,10.3191-.303,30.0978-1.0066,35.3924,10.3951,1.6272,3.5042,1.212,7.534.126,11.13-2.741,9.0768-13.1993,13.1467-21.848,13.91-5.909.5216-9.8922,2.8292-12.1684,8.4835-3.3234,8.2558-1.9585,17.8033,7.5888,20.1736,14.7076,3.6514,31.6764,2.4294,46.7394,2.35,7.4105-.0392,15.19-.8791,22.2084,2.0454,9.4009,3.9521,11.1332,16.1766,5.6852,24.1948-4.8775,7.1786-14.2509,8.3378-22.2307,8.2873-21.8895-.1387-43.7779-.4083-65.6674-.5487-10.4751-.0672-21.1319-.6346-31.5858.037-9.3984.6039-19.7059,3.8265-20.2211,14.9231-.3608,7.7732,5.8864,15.4291,13.4828,17.072a22.0982,22.0982,0,0,0,4.7025.3309q17.9325,0,35.8652-.0135c11.2983,0,23.056-1.1485,34.2863.0081A18.2824,18.2824,0,0,1-501.0185,334.86C-500.62,345.8319-508.4377,350.1581-517.9581,351.6891Z" transform="translate(779.7432 -151.5816)"/><path class="cls-1" d="M-758.9972,350.282c-8.8829,1.5462-18.2642-4.876-20.37-13.5971-2.5521-10.57,8.3532-20.23,18.5638-19.25C-742.085,319.232-739.4585,346.88-758.9972,350.282Z" transform="translate(779.7432 -151.5816)"/><path class="cls-1" d="M-296.2742,318.2056c-7.4764.833-15.03.4347-22.5311.11-7.589-.3283-16.5966,1.27-23.9237-.8216C-350.1352,315.38-355.13,305.83-353.9168,298.55c1.3982-9.1464,10.0189-13.44,18.4978-14.2964,6.4115-.6473,12.8677.3007,19.3116.35,9.12.0693,19.2327-2.1708,28.1157.7073,7.5159,2.4352,11.6362,11.05,10.7692,18.6445-1.001,8.7666-8.4927,12.6973-16.4616,13.91Q-294.9774,318.0623-296.2742,318.2056Z" transform="translate(779.7432 -151.5816)"/><path class="cls-1" d="M-337.2018,251.96a83.9917,83.9917,0,0,1-9.3011.8092c-15.1092.6852-30.2133-.723-45.3214-.7333-10.5075-.0073-21.0114.3016-31.514.5874-9.164.2494-18.644.7784-27.421-2.3769-6.9379-2.4941-12.0624-9.7917-10.8936-17.3953,2.0268-13.1854,16.5631-15.0481,27.2518-14.8347,10.3567.2067,28.9862,2.5129,33.9337-9.5694,2.3678-5.7837.496-12.7411-3.5653-17.292-6.6633-7.4662-19.2625-3.3458-25.15-10.8918-5.5238-7.08-4.2644-20.3185,2.6588-24.9932,6.862-4.6335,21.2036-3.1906,32.4379-3.1906h63.8123c16.2865,0,28.6647-.6849,32.4381,11.7,3.32,10.9-5.29,19.75-15.4674,21.2781-10.05,1.5088-20.2989-1.3336-30.3537.5556-14.8991,2.7995-21.0791,24.6886-5.018,31.0785,10.7344,4.2706,25.2942.5829,27.7427,15.5675C-319.07,243.655-326.7775,250.3088-337.2018,251.96Z" transform="translate(779.7432 -151.5816)"/><path class="cls-1" d="M-683.99,218.578q-.4935.0921-.9945.1693c-8.09,1.2457-17.0484,1.4861-24.696-1.818-8.7759-3.7916-14.7745-17.7257-7.7785-25.6375,3.9823-4.5036,11.6964-5.6537,17.3149-6.4043,6.7688-.9042,14.5327-1.2624,21.03,1.2249,6.5227,2.497,10.3191,10.2267,10.2462,16.9089C-668.9686,212.2162-675.661,217.0218-683.99,218.578Z" transform="translate(779.7432 -151.5816)"/><path class="cls-1" d="M-465.8491,186.1733c-7.98,1.537-16.8616,1.1555-22.6562.7349-5.9586-.4326-13.048-1.3038-17.9021-5.3418-5.5749-4.6375-6.8826-14.4184-3.5566-20.7241,3.3224-6.2988,10.4884-8.7457,17.2282-9.142,5.3718-.3158,10.6475.1007,16.01.0789,5.7623-.0234,11.6125-.48,17.2575.9713,9.0823,2.3342,13.1541,11.2452,11.1372,20.1434C-450.1365,180.8563-457.4991,184.565-465.8491,186.1733Z" transform="translate(779.7432 -151.5816)"/></svg>