<svg id="Laag_1" data-name="Laag 1" xmlns="http://www.w3.org/2000/svg" width="468.4154" height="647.3127" viewBox="0 0 468.4154 647.3127"><defs><style>.cls-1{fill:#fff;}</style></defs><path class="cls-1" d="M551.5767,499.3209,498.932,516.8658s-17.0381,3.8071-21.8936-9.3933c-4.3615-11.8577,1.8966-19.1775,9.2255-23.3615,6.028-3.4414,101.0908-32.5215,134.4691-43.26,10.7576-3.4607,13.6308,2.1591,17.2787,11.8268,8.86,23.4817,17.9988,75.5961-16.0849,131.9139-36.2309,59.8657-117.617,83.3432-180.1726,62.9849l-25.2277,51.2793a22.1589,22.1589,0,0,1-30.12,9.8755c-43.6094-22.7166-139.97-89.9779-125.9927-235.9726,15.0783-157.4981,164.76-214.0223,241.1345-209.3717l38.4232-76.89s9.09-14.7951,23.5491-8.6412c10.4975,4.4677,11.7967,15.381,9.2073,21.9972-1.4673,3.7492-30.2048,61.1633-43.9507,89.075a24.3876,24.3876,0,0,1-22.9855,13.5562c-35.0314-1.54-120.9452,3.5829-174.3571,82.5933-68.878,101.8889-35.9187,222.34,55.3162,282.1725l15.2009-27.9379a12.6941,12.6941,0,0,0-4.1614-16.3922c-44.1912-28.7893-86.516-102.8364-45.8124-191.4889,39.1285-85.2219,141.4264-95.7537,179.5374-80.2293a13.5419,13.5419,0,0,0,16.5223-6.031l25.8246-47.9594a16.9926,16.9926,0,0,1,23.3943-6.6951c42.6371,24.3437,156.7075,105.0239,124.5708,257.3711C680.3946,744.3015,485.8391,733.9927,485.8391,733.9927l-41.1945,80.6435s-6.7166,14.0613-23.8707,7.1-7.0154-24.31-7.0154-24.31L457.48,710.5639a23.6818,23.6818,0,0,1,23.2484-12.9147c38.2132,3.3461,137.1979-.1545,192.7541-114.1194,54.95-112.7221-18.5725-220.9415-73.8207-252.1733L567.89,388.0526a16.596,16.596,0,0,1-22.1,6.4342c-34.4855-18.0477-119.0213-22.2538-157.1458,48.7383-40.2778,75.002,6.9815,142.3352,52.4883,163.1559,82.6825,37.83,172.4406-18.9114,170.257-112.6427a10.3608,10.3608,0,0,0-13.5814-9.65Z" transform="translate(-259.0408 -176.3584)"/></svg>