<svg id="Laag_1" data-name="Laag 1" xmlns="http://www.w3.org/2000/svg" width="458.7101" height="628.1884" viewBox="0 0 458.7101 628.1884"><defs><style>.cls-1{fill:#05d4ac;}</style></defs><path class="cls-1" d="M550.7525,501.5994l-52.1707,15.1118s-16.8119,3.0608-21.0472-10.0386c-3.8045-11.7668,2.6009-18.6823,9.9315-22.4894,6.0294-3.1313,100.135-27.8751,133.1978-37.0789,10.6558-2.9663,13.2474,2.6418,16.4391,12.239,7.7524,23.31,14.6629,74.6355-20.8625,128.39-37.7636,57.1414-118.2751,76.9375-178.6646,54.5933l-26.6681,49.1715a21.689,21.689,0,0,1-29.8428,8.487C339.2972,676.0717,247.67,606.54,267.0185,464.296,287.8916,310.8442,436.4843,261.3838,511,268.9029l40.57-73.7062s9.4655-14.1166,23.3679-7.5355c10.0931,4.7779,10.9393,15.502,8.1495,21.8722-1.581,3.61-31.92,58.6448-46.45,85.4087a23.871,23.871,0,0,1-23.0079,12.3644c-34.202-2.8685-118.4277-1.2-173.74,73.997-71.328,96.9715-43.7778,216.0582,43.1256,278.1254l15.9536-26.7328a12.4254,12.4254,0,0,0-3.4323-16.1941c-42.1007-29.8757-80.6156-103.9424-37.3579-189.0642,41.5838-81.8279,142.0442-88.1493,178.7141-71.4835a13.2549,13.2549,0,0,0,16.3939-5.2559l27.1227-45.9013a16.6326,16.6326,0,0,1,23.1408-5.6382c40.7536,25.4674,149.18,108.8122,111.8235,256.5627C667.2117,746.209,477.3311,728.5591,477.3311,728.5591l-43.4263,77.27s-7.116,13.4912-23.6225,6.0158-5.9157-24.0488-5.9157-24.0488l46.1394-83.2539a23.18,23.18,0,0,1,23.24-11.7266c37.2435,4.7589,134.19,5.1853,192.9585-104.115,58.1277-108.1086-9.5707-216.81-62.39-249.5051L571.0353,393.41a16.244,16.244,0,0,1-21.8642,5.4333c-33.0259-18.9926-115.5412-26.3945-155.5894,41.5552-42.31,71.7877,1.2918,139.48,44.989,161.6134,79.3948,40.2146,169.3881-11.7886,170.8983-103.5458A10.1413,10.1413,0,0,0,596.5612,488.5Z" transform="translate(-264.3703 -185.9127)"/></svg>