<svg id="Laag_1" data-name="Laag 1" xmlns="http://www.w3.org/2000/svg" width="134" height="763.1" viewBox="0 0 134 763.1"><defs><style>.cls-1{fill:#fff;}.cls-2{fill:#05d4ac;}</style></defs><path class="cls-1" d="M513.5,120.6l1,763s-65-226-134-292c0,0,72,31,105,95V120.5Z" transform="translate(-380.5 -120.5)"/><path class="cls-2" d="M470.6533,572.0215h-6.5112a12.6356,12.6356,0,0,0,1.7759-2.6807,21.7113,21.7113,0,0,0,1.332-3.2881,26.2553,26.2553,0,0,0,.8384-3.47,19.3381,19.3381,0,0,0,.2959-3.2226q0-5.0963-1.8906-7.6124a7.0917,7.0917,0,0,0-8.7637-1.6767,9.4332,9.4332,0,0,0-2.5816,2.3183,23.0067,23.0067,0,0,0-2.2358,3.502q-1.0686,2.0215-2.2529,4.3574-1.2489,2.4654-2.5318,4.6035a19.9542,19.9542,0,0,1-2.8281,3.7159,11.7974,11.7974,0,0,1-3.5024,2.4824,11.9382,11.9382,0,0,1-10.1939-.51,12.1238,12.1238,0,0,1-3.93-3.7158,16.8419,16.8419,0,0,1-2.3017-5.2451,24.0255,24.0255,0,0,1-.7564-6.001q0-6.9713,1.6773-10.1611h6.2148a18.4211,18.4211,0,0,0-2.8935,10.72,17.63,17.63,0,0,0,.3779,3.6172,10.2234,10.2234,0,0,0,1.2334,3.2226,7.1457,7.1457,0,0,0,2.2031,2.3028,5.8489,5.8489,0,0,0,3.2881.8877,6.7578,6.7578,0,0,0,3.124-.6748,7.6361,7.6361,0,0,0,2.4009-1.9893,19.7631,19.7631,0,0,0,2.1045-3.206q1.02-1.8912,2.2358-4.3575,1.25-2.5312,2.6309-4.8008a21.9331,21.9331,0,0,1,3.0581-3.9785,13.6117,13.6117,0,0,1,3.7158-2.7129,10.4456,10.4456,0,0,1,4.67-1.0029,11.8465,11.8465,0,0,1,5.9024,1.3643,11.2024,11.2024,0,0,1,3.93,3.6826,16.0794,16.0794,0,0,1,2.187,5.3437,29.3164,29.3164,0,0,1,.6738,6.38,26.0789,26.0789,0,0,1-.1807,2.7617q-.1809,1.6451-.5263,3.3545a27.2094,27.2094,0,0,1-.855,3.2393A10.075,10.075,0,0,1,470.6533,572.0215Z" transform="translate(-380.5 -120.5)"/><path class="cls-2" d="M470.5874,501.9453a27.6586,27.6586,0,0,1,2.7622,13.0225q0,10.062-6.478,16.1133t-17.001,6.0507q-11.3115,0-18.2837-6.8076a23.1027,23.1027,0,0,1-6.9712-17.2637,27.691,27.691,0,0,1,1.94-11.1152h5.8862a22.55,22.55,0,0,0-2.8276,11.1807,17.1549,17.1549,0,0,0,5.4257,13.17q5.4258,5.0493,14.502,5.0479,8.6154,0,13.729-4.7188a16.0546,16.0546,0,0,0,5.1133-12.3809,23.2306,23.2306,0,0,0-3.1568-12.2988Z" transform="translate(-380.5 -120.5)"/><path class="cls-2" d="M472.5605,458.5386v6.5766l-13.2192,7.8921a28.932,28.932,0,0,0-3.1406,2.1045A12.0388,12.0388,0,0,0,454.08,477.2a7.2483,7.2483,0,0,0-1.2,2.3018,9.4876,9.4876,0,0,0-.3779,2.7788v4.538h20.059v5.5245H425.4048V478.269a20.0618,20.0618,0,0,1,.7729-5.7055,12.7705,12.7705,0,0,1,2.3511-4.5381,10.9359,10.9359,0,0,1,3.93-3.0088,13.03,13.03,0,0,1,5.5083-1.085,13.2652,13.2652,0,0,1,4.5215.74,11.8038,11.8038,0,0,1,3.6665,2.1045,12.759,12.759,0,0,1,2.7456,3.2886,16.77,16.77,0,0,1,1.7593,4.3242h.1318a9.9414,9.9414,0,0,1,1.2-2.0552,11.327,11.327,0,0,1,1.5947-1.6606,21.1422,21.1422,0,0,1,2.0884-1.5621q1.1675-.7726,2.7129-1.7265Zm-42.1572,28.28h17.1v-7.4975a11.359,11.359,0,0,0-.625-3.8311,8.8645,8.8645,0,0,0-1.792-3.042,8.1213,8.1213,0,0,0-2.8608-2.0058,9.5826,9.5826,0,0,0-3.7983-.7232,7.3939,7.3939,0,0,0-5.9024,2.45q-2.121,2.45-2.1211,7.0865Z" transform="translate(-380.5 -120.5)"/><path class="cls-2" d="M473.35,433.7109q0,10.03-6.6094,16.0635-6.61,6.0353-17.1982,6.0342-11.3775,0-18.1524-6.1489-6.7734-6.1488-6.7739-16.7383,0-9.7662,6.5767-15.7349t17.1982-5.9682q11.5422,0,18.251,6.1162T473.35,433.7109Zm-43.7353-.395a15.2037,15.2037,0,0,0,5.36,12.0689q5.3607,4.6362,14.0742,4.6362,8.7152,0,14.0254-4.5215a14.7439,14.7439,0,0,0,5.3106-11.7886q0-7.7607-5.064-12.2329t-14.1733-4.4721q-9.3384,0-14.4361,4.34Q429.6148,425.6872,429.6143,433.3159Z" transform="translate(-380.5 -120.5)"/><path class="cls-2" d="M472.5605,377.48v24.4658H425.4048v-5.5244H467.562V377.48Z" transform="translate(-380.5 -120.5)"/><path class="cls-2" d="M472.5605,345.7793v24.4658H425.4048v-5.5244H467.562V345.7793Z" transform="translate(-380.5 -120.5)"/><path class="cls-2" d="M472.5605,320.0967H425.4048v-13.022q0-24.9258,22.9858-24.9263,10.9182,0,17.544,6.9224t6.6259,18.53Zm-42.1572-5.5244H467.562v-7.0371q0-9.274-4.9653-14.4366t-14.0742-5.1626q-18.1186,0-18.1192,19.27Z" transform="translate(-380.5 -120.5)"/><path class="cls-2" d="M473.35,253.8687q0,10.03-6.6094,16.0634-6.61,6.0353-17.1982,6.0342-11.3775,0-18.1524-6.1489-6.7734-6.1487-6.7739-16.7383,0-9.7661,6.5767-15.7349t17.1982-5.9682q11.5422,0,18.251,6.1162T473.35,253.8687Zm-43.7353-.3951a15.2037,15.2037,0,0,0,5.36,12.0689q5.3607,4.6362,14.0742,4.6362,8.7152,0,14.0254-4.5215a14.7437,14.7437,0,0,0,5.3106-11.7885q0-7.7609-5.064-12.233t-14.1733-4.4721q-9.3384,0-14.4361,4.34Q429.6148,245.8449,429.6143,253.4736Z" transform="translate(-380.5 -120.5)"/><path class="cls-2" d="M425.4048,166.2l47.1557,13.3179v6.4785l-34.4624,9.7007a21.5494,21.5494,0,0,1-4.8012.7563v.1314a24.3227,24.3227,0,0,1,4.7353.855l34.5283,9.7666v6.4126L425.4048,227.43v-6.0835l36.1723-10.03a23.8029,23.8029,0,0,1,4.7354-.7891v-.1645a27.8648,27.8648,0,0,1-4.7354-1.0195l-36.1723-10.4239V193.625l36.4355-9.9966a26.7086,26.7086,0,0,1,4.4063-.79v-.1314a26.3833,26.3833,0,0,1-4.5376-.8877l-36.3042-9.6352Z" transform="translate(-380.5 -120.5)"/><path class="cls-2" d="M472.5605,121.1812v6.7744l-37.5864,24.268a15.65,15.65,0,0,1-2.96,1.5127v.1973a48.6813,48.6813,0,0,1,6.4781-.2627h34.0678v5.5244H425.4048v-7.1689l36.9946-23.61q2.3021-1.48,3.1568-1.9072v-.1318a49.8753,49.8753,0,0,1-6.9385.3291H425.4048v-5.5249Z" transform="translate(-380.5 -120.5)"/></svg>